<svg xmlns="http://www.w3.org/2000/svg" xmlns:xlink="http://www.w3.org/1999/xlink" width="18" height="18" viewBox="0 0 18 18"><defs><path id="a" d="M5.023 1.718h7.954v14.563H5.023z"/></defs><clipPath id="b"><use xlink:href="#a" overflow="visible"/></clipPath><path clip-path="url(#b)" fill="#FFF" d="M12.6 1.702l-1.889-.003c-2.121 0-3.493 1.407-3.493 3.584v1.653H5.32c-.164 0-.297.132-.297.296v2.396c0 .163.133.296.297.296h1.898v6.042c0 .164.133.297.298.297h2.477c.164 0 .296-.133.296-.297V9.923h2.221c.164 0 .297-.133.297-.296l.002-2.396c0-.078-.031-.153-.088-.21-.055-.055-.131-.086-.209-.086h-2.223v-1.4c0-.673.162-1.016 1.039-1.016H12.6c.164 0 .297-.133.297-.297V2c-.001-.165-.133-.297-.297-.298zm0 0"/></svg>