<svg xmlns="http://www.w3.org/2000/svg" width="18" height="18" viewBox="0 0 18 18"><path fill="#FFF" d="M7.827 11.735c-.445 2.334-.988 4.571-2.599 5.74-.497-3.527.729-6.177 1.3-8.989-.972-1.633.117-4.926 2.166-4.115 2.521.998-2.184 6.08.975 6.715 3.298.662 4.644-5.721 2.6-7.797C9.314.291 3.667 3.22 4.362 7.513c.169 1.048 1.253 1.367.434 2.815-1.892-.419-2.456-1.911-2.384-3.899C2.53 3.175 5.337.896 8.152.581c3.562-.399 6.904 1.307 7.365 4.656.521 3.781-1.606 7.875-5.415 7.582-1.033-.081-1.466-.592-2.275-1.084zm0 0"/></svg>