<svg xmlns="http://www.w3.org/2000/svg" width="18" height="18" viewBox="0 0 18 18"><path fill="#111" d="M12.125 10.875c-.43 0-.824.146-1.141.389L7.723 9.308c.016-.101.027-.204.027-.308s-.011-.207-.027-.308l3.262-1.957c.316.244.711.39 1.141.39C13.16 7.125 14 6.285 14 5.25s-.84-1.875-1.875-1.875-1.875.84-1.875 1.875c0 .104.011.207.027.307L7.015 7.514c-.315-.243-.71-.389-1.14-.389C4.84 7.125 4 7.965 4 9s.84 1.875 1.875 1.875c.43 0 .824-.146 1.14-.39l3.263 1.957c-.017.101-.027.202-.027.308 0 1.035.84 1.875 1.875 1.875S14 13.785 14 12.75s-.84-1.875-1.875-1.875zm0 0"/></svg>