<svg xmlns="http://www.w3.org/2000/svg" width="18" height="18" viewBox="0 0 18 18"><path fill="#FFF" d="M6.479 14.521c-1.574 0-3.04-.461-4.273-1.252.218.025.44.039.665.039 1.306 0 2.508-.446 3.463-1.193-1.221-.023-2.25-.829-2.604-1.938.17.033.345.051.524.051.254 0 .5-.034.734-.098-1.276-.255-2.237-1.382-2.237-2.734v-.035c.376.209.806.335 1.263.35-.748-.5-1.24-1.354-1.24-2.32 0-.512.138-.99.378-1.402 1.375 1.688 3.429 2.797 5.746 2.913-.048-.205-.072-.418-.072-.636 0-1.539 1.249-2.787 2.788-2.787.803 0 1.527.338 2.035.881.635-.125 1.232-.357 1.77-.678-.207.652-.648 1.197-1.225 1.543.564-.067 1.102-.217 1.602-.439-.375.56-.848 1.051-1.393 1.443.006.12.008.24.008.361-.001 3.683-2.804 7.931-7.932 7.931"/></svg>